<svg width="63" height="64" viewBox="0 0 63 64" fill="none" xmlns="http://www.w3.org/2000/svg">
<mask id="mask0_0_383" style="mask-type:luminance" maskUnits="userSpaceOnUse" x="0" y="0" width="63" height="64">
<path d="M63 0H0V63.4934H63V0Z" fill="white"/>
</mask>
<g mask="url(#mask0_0_383)">
<path d="M31.1217 -0.000641787H-0.000244141L6.54754 6.52139H31.1217C37.7762 6.52139 44.1579 9.16178 48.8633 13.8617C53.5686 18.5616 56.2123 24.9361 56.2123 31.5828C56.2123 38.2295 53.5686 44.6041 48.8633 49.3039C44.1579 54.0036 37.7762 56.6443 31.1217 56.6443H15.7812L21.772 50.6689H31.126C36.1924 50.6689 41.0513 48.6587 44.6337 45.0803C48.2164 41.5019 50.2291 36.6486 50.2291 31.5881C50.2291 26.5276 48.2164 21.6743 44.6337 18.096C41.0513 14.5177 36.1924 12.5074 31.126 12.5074H12.5271L19.2165 19.1847L27.4673 27.4195H31.1217C32.2266 27.4195 33.2862 27.8579 34.0675 28.6383C34.8488 29.4186 35.2877 30.477 35.2877 31.5806C35.2877 32.6843 34.8488 33.7427 34.0675 34.523C33.2862 35.3034 32.2266 35.7418 31.1217 35.7418H27.4785L20.7891 42.4261H31.1217C32.5466 42.4261 33.9576 42.1458 35.2741 41.6011C36.5905 41.0565 37.7867 40.2582 38.7943 39.2518C39.8018 38.2453 40.6011 37.0506 41.1463 35.7357C41.6917 34.4207 41.9723 33.0114 41.9723 31.5881C41.9723 30.1648 41.6917 28.7555 41.1463 27.4406C40.6011 26.1257 39.8018 24.9309 38.7943 23.9245C37.7867 22.9181 36.5905 22.1198 35.2741 21.5751C33.9576 21.0304 32.5466 20.7501 31.1217 20.7501H30.0244L28.4588 19.1837H28.4994L31.1217 19.1767C34.417 19.1767 37.5774 20.4843 39.9075 22.8117C42.2377 25.1391 43.5467 28.2958 43.5467 31.5873C43.5467 34.8788 42.2377 38.0355 39.9075 40.3629C37.5774 42.6904 34.417 43.9981 31.1217 43.9981H19.2075L6.54969 56.643L0.00670479 63.178H31.1217C39.5096 63.178 47.5541 59.8497 53.4852 53.9254C59.4164 48.0012 62.7482 39.9662 62.7482 31.5881C62.7482 23.21 59.4164 15.175 53.4852 9.25075C47.5541 3.3265 39.5096 -0.00170898 31.1217 -0.00170898V-0.000641787Z" fill="#0D988C"/>
<path d="M22.6985 31.5857L-0.00170898 8.91235V54.2636L6.54553 47.7234L22.6985 31.5857Z" fill="#0A4B65"/>
</g>
</svg>
